# File created by Blade
# Date/Time:  Wed Jan 21 18:34:34 2015
#---------------------------------------------------------
:version 1.10
:name HOM
:units
  mass 1.0
  length 1.000000
  angle deg
:documentation
     Acclaim Skeleton File
:root
   axis xyz
   order TX TY TZ RX RY RZ
   position 0.000000 0.000000 0.000000
   orientation 0 0 0
:bonedata
   begin
      id 1
      name RightUpLeg_dum
      direction -1.000000 0.000000 0.000000
      length 3.693983
      axis 0.0 0.0 0.0 xyz
   end
   begin
      id 2
      name LeftUpLeg_dum
      direction 1.000000 0.000000 0.000000
      length 3.693983
      axis 0.0 0.0 0.0 xyz
   end
   begin
      id 3
      name Spine_dum
      direction 0.000000 1.000000 0.000000
      length 2.392956
      axis 0.0 0.0 0.0 xyz
   end
   begin
      id 4
      name RightUpLeg
      direction 0.000000 -1.000000 0.000000
      length 15.795667
      axis 0.0 0.0 0.0 xyz
      dof rx ry rz
   end
   begin
      id 5
      name RightLeg
      direction 0.000000 -1.000000 0.000000
      length 14.766989
      axis 0.0 0.0 0.0 xyz
      dof rx ry rz
   end
   begin
      id 6
      name RightFoot
      direction 0.000000 -0.258819 0.965926
      length 4.962790
      axis 15.0 0.0 0.0 xyz
      dof rx ry rz
   end
   begin
      id 7
      name RightToeBase
      direction 0.000000 0.000000 1.000000
      length 2.952750
      axis 0.0 0.0 0.0 xyz
      dof rx ry rz
   end
   begin
      id 8
      name LeftUpLeg
      direction 0.000000 -1.000000 0.000000
      length 15.795667
      axis 0.0 0.0 0.0 xyz
      dof rx ry rz
   end
   begin
      id 9
      name LeftLeg
      direction 0.000000 -1.000000 0.000000
      length 14.766989
      axis 0.0 0.0 0.0 xyz
      dof rx ry rz
   end
   begin
      id 10
      name LeftFoot
      direction 0.000000 -0.258819 0.965926
      length 4.962790
      axis 15.0 0.0 0.0 xyz
      dof rx ry rz
   end
   begin
      id 11
      name LeftToeBase
      direction 0.000000 0.000000 1.000000
      length 2.952750
      axis 0.0 0.0 0.0 xyz
      dof rx ry rz
   end
   begin
      id 12
      name Spine
      direction 0.000000 1.000000 0.000000
      length 0.000000
      axis 0.0 0.0 0.0 xyz
      dof rx ry rz
   end
   begin
      id 13
      name Spine_dum1
      direction 0.000000 1.000000 0.000000
      length 13.207411
      axis 0.0 0.0 0.0 xyz
   end
   begin
      id 14
      name Spine_dum2
      direction 0.000000 1.000000 0.000000
      length 13.207411
      axis 0.0 0.0 0.0 xyz
   end
   begin
      id 15
      name Spine_dum3
      direction 0.000000 1.000000 0.000000
      length 19.250100
      axis 0.0 0.0 0.0 xyz
   end
   begin
      id 16
      name RightShoulder
      direction -1.000000 0.000000 0.000000
      length 8.140465
      axis 0.0 0.0 90.0 xyz
      dof rx ry rz
   end
   begin
      id 17
      name RightArm
      direction -1.000000 0.000000 0.000000
      length 10.649840
      axis 0.0 0.0 90.0 xyz
      dof rx ry rz
   end
   begin
      id 18
      name RightForeArm
      direction -1.000000 0.000000 0.000000
      length 8.304624
      axis 0.0 0.0 90.0 xyz
      dof ry rz rx
   end
   begin
      id 19
      name RightHand
      direction -1.000000 0.000000 0.000000
      length 0.000000
      axis 0.0 0.0 90.0 xyz
      dof rx ry rz
   end
   begin
      id 20
      name RightHand_dum1
      direction -1.000000 0.000000 0.000000
      length 3.937000
      axis 0.0 0.0 90.0 xyz
   end
   begin
      id 21
      name RightHand_dum2
      direction 0.000000 0.000000 0.000000
      length 0.000000
      axis 0.0 0.0 90.0 xyz
   end
   begin
      id 22
      name RightHandThumb1
      direction 0.000000 0.000000 1.000000
      length 3.937000
      axis 0.0 0.0 90.0 xyz
      dof rx rz ry
   end
   begin
      id 23
      name LeftShoulder
      direction 1.000000 0.000000 0.000000
      length 8.140465
      axis 0.0 0.0 -90.0 xyz
      dof rx ry rz
   end
   begin
      id 24
      name LeftArm
      direction 1.000000 0.000000 0.000000
      length 10.649840
      axis 0.0 0.0 -90.0 xyz
      dof rx ry rz
   end
   begin
      id 25
      name LeftForeArm
      direction 1.000000 0.000000 0.000000
      length 8.304624
      axis 0.0 0.0 -90.0 xyz
      dof ry rz rx
   end
   begin
      id 26
      name LeftHand
      direction 1.000000 0.000000 0.000000
      length 0.000000
      axis 0.0 0.0 -90.0 xyz
      dof rx ry rz
   end
   begin
      id 27
      name LeftHand_dum1
      direction 1.000000 0.000000 0.000000
      length 3.937000
      axis 0.0 0.0 -90.0 xyz
   end
   begin
      id 28
      name LeftHand_dum2
      direction 0.000000 0.000000 0.000000
      length 0.000000
      axis 0.0 0.0 -90.0 xyz
   end
   begin
      id 29
      name LeftHandThumb1
      direction 0.000000 0.000000 1.000000
      length 3.937000
      axis 0.0 0.0 -90.0 xyz
      dof rx rz ry
   end
   begin
      id 30
      name Head
      direction 0.000000 1.000000 0.000000
      length 4.527550
      axis 0.0 0.0 0.0 xyz
      dof rx ry rz
   end
:hierarchy
   begin
      root RightUpLeg_dum LeftUpLeg_dum Spine_dum
      RightUpLeg_dum RightUpLeg
      LeftUpLeg_dum LeftUpLeg
      Spine_dum Spine
      RightUpLeg RightLeg
      RightLeg RightFoot
      RightFoot RightToeBase
      LeftUpLeg LeftLeg
      LeftLeg LeftFoot
      LeftFoot LeftToeBase
      Spine Spine_dum1 Spine_dum2 Spine_dum3
      Spine_dum1 RightShoulder
      Spine_dum2 LeftShoulder
      Spine_dum3 Head
      RightShoulder RightArm
      RightArm RightForeArm
      RightForeArm RightHand
      RightHand RightHand_dum1 RightHand_dum2
      RightHand_dum2 RightHandThumb1
      LeftShoulder LeftArm
      LeftArm LeftForeArm
      LeftForeArm LeftHand
      LeftHand LeftHand_dum1 LeftHand_dum2
      LeftHand_dum2 LeftHandThumb1
   end

# File created by Blade
# Date/Time:  Wed Jan 21 18:34:41 2015
# Frame Rate: 120.000 fps
#------------------------------------------------------
:FULLY-SPECIFIED
:DEGREES
832
root 3.371676 31.674130 -5.857687 189.030364 71.327752 139.771176
RightUpLeg -39.420858 -29.486239 27.943092
RightLeg 3.933805 -0.000000 -0.000000
RightFoot -39.078343 -34.188973 35.379388
RightToeBase 18.531238 -0.000000 -0.000000
LeftUpLeg -69.176450 -23.796274 16.461971
LeftLeg 6.088915 -0.000000 -0.000000
LeftFoot 41.399151 -35.254365 -58.079825
LeftToeBase 24.499552 -0.000000 -0.000000
Spine -53.347596 20.629802 -43.873089
RightShoulder 1.627803 35.085999 -46.553748
RightArm 19.088920 -21.912447 43.784250
RightForeArm 10.692944 -0.000000 -0.228258
RightHand 7.111915 0.000000 8.328145
RightHandThumb1 -24.326973 -0.000000 -32.862282
LeftShoulder -21.693108 12.050916 36.597648
LeftArm 5.235034 -14.012578 -48.355732
LeftForeArm 23.908506 -0.000000 -4.793226
LeftHand -30.666706 -0.000000 3.063973
LeftHandThumb1 -26.253704 0.000000 33.147579
Head -1.647908 18.851359 -7.289892
833
root 3.375131 31.680438 -5.870822 188.126348 71.695811 138.926764
RightUpLeg -39.317132 -29.455236 27.708053
RightLeg 3.951365 -0.000000 -0.000000
RightFoot -38.920129 -34.082649 35.175830
RightToeBase 18.579088 -0.000000 -0.000000
LeftUpLeg -69.098466 -23.715559 16.432344
LeftLeg 6.151239 -0.000000 -0.000000
LeftFoot 40.959965 -35.283312 -57.793606
LeftToeBase 24.449815 -0.000000 -0.000000
Spine -53.378936 20.639020 -43.827067
RightShoulder 1.517560 34.909523 -46.564070
RightArm 19.150729 -21.874107 43.819367
RightForeArm 10.672735 -0.000000 -0.231822
RightHand 7.100511 -0.000000 8.341332
RightHandThumb1 -24.326973 -0.000000 -32.862282
LeftShoulder -21.666889 11.946574 36.656146
LeftArm 5.287987 -13.998525 -48.241590
LeftForeArm 23.878285 -0.000000 -4.834508
LeftHand -30.641568 0.000000 3.053665
LeftHandThumb1 -26.253704 0.000000 33.147579
Head -1.586260 18.830450 -7.197285
834
root 3.380016 31.687282 -5.885015 187.176220 72.059468 138.072986
RightUpLeg -39.189232 -29.474631 27.487082
RightLeg 3.967355 -0.000000 -0.000000
RightFoot -38.730433 -33.949455 34.955613
RightToeBase 18.592903 -0.000000 -0.000000
LeftUpLeg -68.954202 -23.596683 16.253619
LeftLeg 6.266550 -0.000000 -0.000000
LeftFoot 40.659845 -35.348184 -57.534223
LeftToeBase 24.389100 -0.000000 -0.000000
Spine -53.386952 20.649232 -43.723435
RightShoulder 1.486558 34.908669 -46.522983
RightArm 19.041264 -21.922879 43.905572
RightForeArm 10.716052 -0.000000 -0.206802
RightHand 7.114895 -0.000000 8.307265
RightHandThumb1 -24.326973 -0.000000 -32.862282
LeftShoulder -21.635487 11.888876 36.702454
LeftArm 5.323283 -14.029901 -48.126226
LeftForeArm 23.846460 -0.000000 -4.849547
LeftHand -30.856852 -0.000000 3.090990
LeftHandThumb1 -26.253704 0.000000 33.147579
Head -1.445664 18.808246 -7.104977
835
root 3.385057 31.695070 -5.900894 186.141078 72.414223 137.118557
RightUpLeg -39.082790 -29.489599 27.237669
RightLeg 4.014535 -0.000000 -0.000000
RightFoot -38.562161 -33.754041 34.782423
RightToeBase 18.598742 -0.000000 -0.000000
LeftUpLeg -68.841199 -23.509247 16.117312
LeftLeg 6.388497 -0.000000 -0.000000
LeftFoot 40.188357 -35.472832 -57.146647
LeftToeBase 24.367169 -0.000000 -0.000000
Spine -53.395387 20.638878 -43.613830
RightShoulder 1.441888 34.737689 -46.459765
RightArm 19.110935 -21.893510 43.877748
RightForeArm 10.782721 -0.000000 -0.219978
RightHand 7.216119 -0.000000 8.414574
RightHandThumb1 -24.326973 -0.000000 -32.862282
LeftShoulder -21.632230 11.873508 36.711693
LeftArm 5.425968 -14.050136 -47.999021
LeftForeArm 23.925280 -0.000000 -4.880111
LeftHand -30.633807 -0.000000 2.991326
LeftHandThumb1 -26.253704 0.000000 33.147579
Head -1.324710 18.855991 -7.017515
836
root 3.386921 31.702636 -5.915350 185.031361 72.776943 136.113955
RightUpLeg -38.978944 -29.571490 27.023990
RightLeg 4.062854 -0.000000 -0.000000
RightFoot -38.311994 -33.487621 34.524330
RightToeBase 18.584507 -0.000000 -0.000000
LeftUpLeg -68.719767 -23.451009 16.066361
LeftLeg 6.457828 -0.000000 -0.000000
LeftFoot 39.730687 -35.476134 -56.785614
LeftToeBase 24.159871 -0.000000 -0.000000
Spine -53.370372 20.642911 -43.475347
RightShoulder 1.414835 34.698646 -46.402568
RightArm 19.046821 -21.919660 43.911437
RightForeArm 11.014919 -0.000000 -0.185317
RightHand 7.284011 0.000000 8.478606
RightHandThumb1 -24.326973 -0.000000 -32.862282
LeftShoulder -21.646412 11.852994 36.745528
LeftArm 5.512435 -14.131988 -47.917897
LeftForeArm 24.030306 0.000000 -4.853701
LeftHand -30.493733 0.000000 2.941825
LeftHandThumb1 -26.253704 0.000000 33.147579
Head -1.245386 18.878273 -6.944267
